#!OML:ASF C:\ViconDB\ViconDB\414\Spring2016\041811\Spring2016.ASF
:FULLY-SPECIFIED
:DEGREES
307
root 5.1692 16.1467 -34.6605 -180.574 -6.54488 179.733
lowerback 28.627 1.41448 -1.18538
upperback 5.04544 0.31839 0.188427
thorax -10.1772 -0.30178 0.870472
lowerneck -13.1334 -4.6091 -14.6402
upperneck 11.0271 -6.45055 18.2485
head 6.6126 -2.58833 7.81008
rclavicle -3.50979e-015 -1.21818e-014
rhumerus -39.5287 3.46627 -77.8804
rradius 99.1917
rwrist -0.854875
rhand -37.6058 -17.4489
rfingers 7.12502
rthumb -10.659 -47.1585
lclavicle -3.50979e-015 -1.21818e-014
lhumerus -35.3067 -5.18302 66.026
lradius 90.7654
lwrist 1.48203
lhand -33.5752 11.4984
lfingers 7.12502
lthumb -6.76951 41.3702
rfemur -44.8912 -19.2197 19.7366
rtibia 68.0873
rfoot -10.9948 -9.27431
rtoes -6.73744
lfemur -45.8375 12.0913 -13.3551
ltibia 62.8835
lfoot -14.4845 -11.4182
ltoes -7.28939
308
root 5.17882 15.8981 -34.8341 -179.905 -7.15779 179.626
lowerback 29.2409 1.16225 -1.22477
upperback 4.94512 -0.0430843 0.0914193
thorax -10.5931 -0.466059 0.920528
lowerneck -13.2551 -4.64481 -14.2612
upperneck 10.4016 -6.42263 18.0265
head 6.41569 -2.56933 7.64959
rclavicle -1.72446e-014 5.96354e-016
rhumerus -40.5792 2.20885 -79.0468
rradius 96.623
rwrist 0.698309
rhand -37.9844 -17.3255
rfingers 7.12502
rthumb -11.0242 -47.016
lclavicle -1.72446e-014 5.96354e-016
lhumerus -36.4823 -4.32729 67.4771
lradius 88.4443
lwrist 0.769278
lhand -34.5817 11.5326
lfingers 7.12502
lthumb -7.74103 41.3709
rfemur -47.6399 -19.6928 19.6817
rtibia 72.3465
rfoot -10.1153 -9.95415
rtoes -5.67558
lfemur -48.6534 11.9272 -13.4309
ltibia 66.7181
lfoot -15.607 -11.8332
ltoes -7.99607
309
root 5.18117 15.6347 -35.0054 -179.081 -7.24266 179.603
lowerback 29.5996 1.09854 -1.27837
upperback 4.94636 -0.169034 0.0444039
thorax -10.7694 -0.527395 0.949194
lowerneck -13.703 -4.83124 -14.2835
upperneck 9.78181 -6.55847 18.1942
head 6.33666 -2.61099 7.67961
rclavicle -5.06901e-015 1.3418e-015
rhumerus -41.3776 0.60176 -80.0665
rradius 93.5777
rwrist 2.46827
rhand -38.7136 -17.4436
rfingers 7.12502
rthumb -11.7275 -47.0954
lclavicle -5.06901e-015 1.3418e-015
lhumerus -37.3092 -3.32185 68.9806
lradius 85.8474
lwrist 0.64049
lhand -35.1213 12.0147
lfingers 7.12502
lthumb -8.26187 41.8331
rfemur -50.502 -19.9372 19.9019
rtibia 76.2076
rfoot -9.47081 -10.4956
rtoes -3.78362
lfemur -51.5838 12.0673 -13.3156
ltibia 70.5314
lfoot -16.9421 -12.209
ltoes -8.65448
310
root 5.17991 15.3869 -35.1726 -178.288 -7.32722 179.685
lowerback 29.9105 1.01456 -1.02754
upperback 4.98138 -0.238475 -0.0822905
thorax -10.8831 -0.577281 0.689438
lowerneck -13.7728 -4.83224 -14.1812
upperneck 8.80201 -6.48961 18.4654
head 6.04552 -2.57361 7.7412
rclavicle 8.49804e-015 9.83984e-015
rhumerus -42.131 -1.36617 -81.0324
rradius 90.528
rwrist 3.60053
rhand -39.0735 -17.7817
rfingers 7.12502
rthumb -12.0745 -47.4133
lclavicle 8.49804e-015 9.83984e-015
lhumerus -37.8334 -2.27706 70.3989
lradius 82.8103
lwrist 0.182447
lhand -35.3043 12.7632
lfingers 7.12502
lthumb -8.43849 42.5746
rfemur -53.0103 -20.188 20.3364
rtibia 79.5345
rfoot -8.33195 -10.8947
rtoes -2.63331
lfemur -54.192 12.476 -13.1867
ltibia 73.9766
lfoot -18.3573 -12.7761
ltoes -9.53861
311
root 5.19163 15.1749 -35.3254 -177.689 -7.46888 180.314
lowerback 30.5686 0.906605 -0.480829
upperback 5.01716 -0.226077 0.0740469
thorax -11.1676 -0.600698 0.553828
lowerneck -14.0241 -4.89794 -14.4187
upperneck 7.94077 -6.45977 18.8884
head 5.84868 -2.55093 7.9152
rclavicle -9.0447e-015 -7.45443e-015
rhumerus -42.6404 -3.36369 -81.8417
rradius 87.3855
rwrist 4.10001
rhand -39.4964 -18.432
rfingers 7.12502
rthumb -12.4823 -48.0392
lclavicle -9.0447e-015 -7.45443e-015
lhumerus -38.21 -1.39719 71.9635
lradius 79.9824
lwrist 1.7945
lhand -34.9611 13.4335
lfingers 7.12502
lthumb -8.10724 43.258
rfemur -54.8299 -20.2578 21.4017
rtibia 82.148
rfoot -6.82869 -11.305
rtoes -2.32861
lfemur -56.3812 13.1241 -12.4447
ltibia 76.9607
lfoot -19.6154 -13.5147
ltoes -10.2234
312
root 5.20289 14.9846 -35.4773 -176.9 -7.56691 180.501
lowerback 30.8197 0.873022 -0.391368
upperback 5.13961 -0.269069 0.147247
thorax -11.1489 -0.636821 0.605852
lowerneck -14.1269 -5.04884 -14.498
upperneck 6.82943 -6.52621 19.081
head 5.55377 -2.59548 7.96567
rclavicle 1.41137e-014 -2.28602e-014
rhumerus -43.0469 -5.37999 -82.5663
rradius 84.3645
rwrist 3.89857
rhand -39.2996 -19.0315
rfingers 7.12502
rthumb -12.2925 -48.6502
lclavicle 1.41137e-014 -2.28602e-014
lhumerus -38.2186 -0.296676 73.4036
lradius 76.8693
lwrist 3.09373
lhand -33.8037 13.985
lfingers 7.12502
lthumb -6.99005 43.8496
rfemur -56.5553 -20.3733 21.9809
rtibia 84.4119
rfoot -5.42024 -11.9314
rtoes -2.55895
lfemur -58.3612 13.7905 -12.2963
ltibia 79.4633
lfoot -20.8934 -14.0539
ltoes -10.5265
313
root 5.2192 14.8183 -35.618 -176.062 -7.6395 180.528
lowerback 31.4222 0.907353 -0.501188
upperback 4.76803 -0.290998 0.201223
thorax -11.0392 -0.658469 0.699473
lowerneck -14.3762 -5.10685 -14.4689
upperneck 6.01288 -6.50421 19.1977
head 5.35142 -2.58953 7.98689
rclavicle -4.52235e-015 -6.06293e-015
rhumerus -43.315 -7.25744 -83.2563
rradius 81.4065
rwrist 2.7478
rhand -39.065 -19.3226
rfingers 7.12502
rthumb -12.0663 -48.9547
lclavicle -4.52235e-015 -6.06293e-015
lhumerus -37.9751 0.686938 74.7764
lradius 73.5647
lwrist 4.74237
lhand -32.7245 13.6208
lfingers 7.12502
lthumb -5.94822 43.5173
rfemur -58.0907 -20.4684 22.325
rtibia 86.3256
rfoot -4.23359 -12.7555
rtoes -2.59412
lfemur -60.1787 14.4262 -12.3165
ltibia 81.6138
lfoot -21.82 -14.5748
ltoes -10.8581
